<svg xmlns="http://www.w3.org/2000/svg" viewBox="0 0 300 300" style="width: 100px; height: 100px;"><defs><style>.cls-1{fill:#f38583;}.cls-2{fill:#fff;}</style></defs><title>Asset 1</title><g><g><circle class="cls-1" cx="150" cy="150" r="150"/><path class="cls-2" d="M74.94,224.9h0l.12-112.5A37.5,37.5,0,0,1,112.6,74.94h2.5l-.12,110A40,40,0,0,1,74.94,224.9Z"/><path class="cls-2" d="M170.1,75,170,190.16c0,8.48-5.95,15.63-14.12,18h0a21.23,21.23,0,0,1-11.79,0c-8.17-2.38-14.09-9.54-14.08-18l.12-114.58a.61.61,0,0,1,.62-.58h0c10.7,0,19.36,8.19,19.35,18.27v.59C150.09,83.41,159.05,75,170.1,75Z"/><path class="cls-2" d="M224.94,225.06h-2.5A37.51,37.51,0,0,1,185,187.52L185.1,75h2.5a37.5,37.5,0,0,1,37.46,37.54Z"/></g></g></svg>
